<svg xmlns="http://www.w3.org/2000/svg" width="1024" height="1024" viewBox="0 0 1024 1024">
  <defs>
    <linearGradient id="upperGrad" x1="218" y1="238" x2="820" y2="595" gradientUnits="userSpaceOnUse"><stop offset="0" stop-color="#F05E78"/><stop offset="1" stop-color="#C7358F"/></linearGradient>
    <linearGradient id="lowerGrad" x1="218" y1="786" x2="820" y2="429" gradientUnits="userSpaceOnUse"><stop offset="0" stop-color="#FF9A8A"/><stop offset="1" stop-color="#F05A7E"/></linearGradient>
    <filter id="shadow" x="-35%" y="-35%" width="170%" height="170%"><feOffset dx="0" dy="16"/><feGaussianBlur stdDeviation="16"/></filter>
    <filter id="glow" x="-45%" y="-45%" width="190%" height="190%"><feGaussianBlur stdDeviation="20"/></filter>
    <filter id="softNoise" x="-25%" y="-25%" width="150%" height="150%"><feTurbulence type="fractalNoise" baseFrequency="0.055" numOctaves="5" seed="43" result="noise"/><feGaussianBlur in="noise" stdDeviation="1.4" result="softNoise"/><feDisplacementMap in="SourceGraphic" in2="softNoise" scale="5.6"/></filter>
  </defs>
  <rect width="1024" height="1024" fill="#121212"/>
  <g transform="translate(512 512) scale(0.58) translate(-512 -512)">
    <g filter="url(#glow)" opacity="0.05"><path d="M 256.13 607.90 L 793.31 437.47 Q 820.00 429.00 820.00 457.00 L 820.00 567.00 Q 820.00 595.00 793.31 603.47 L 256.13 773.90 Q 218.00 786.00 218.00 746.00 L 218.00 660.00 Q 218.00 620.00 256.13 607.90 Z" fill="#FF9A8A"/><path d="M 256.13 250.10 L 793.31 420.53 Q 820.00 429.00 820.00 457.00 L 820.00 567.00 Q 820.00 595.00 793.31 586.53 L 256.13 416.10 Q 218.00 404.00 218.00 364.00 L 218.00 278.00 Q 218.00 238.00 256.13 250.10 Z" fill="#F05A7E" opacity="0.65"/></g>
    <g filter="url(#shadow)" opacity="0.12"><path d="M 256.13 607.90 L 793.31 437.47 Q 820.00 429.00 820.00 457.00 L 820.00 567.00 Q 820.00 595.00 793.31 603.47 L 256.13 773.90 Q 218.00 786.00 218.00 746.00 L 218.00 660.00 Q 218.00 620.00 256.13 607.90 Z" fill="#9E2D65"/><path d="M 256.13 250.10 L 793.31 420.53 Q 820.00 429.00 820.00 457.00 L 820.00 567.00 Q 820.00 595.00 793.31 586.53 L 256.13 416.10 Q 218.00 404.00 218.00 364.00 L 218.00 278.00 Q 218.00 238.00 256.13 250.10 Z" fill="#9E2D65" opacity="0.68"/></g>
    <g shape-rendering="geometricPrecision">
      <path d="M 256.13 607.90 L 793.31 437.47 Q 820.00 429.00 820.00 457.00 L 820.00 567.00 Q 820.00 595.00 793.31 603.47 L 256.13 773.90 Q 218.00 786.00 218.00 746.00 L 218.00 660.00 Q 218.00 620.00 256.13 607.90 Z" fill="url(#lowerGrad)" opacity="0.92"/>
      <path d="M 256.13 250.10 L 793.31 420.53 Q 820.00 429.00 820.00 457.00 L 820.00 567.00 Q 820.00 595.00 793.31 586.53 L 256.13 416.10 Q 218.00 404.00 218.00 364.00 L 218.00 278.00 Q 218.00 238.00 256.13 250.10 Z" fill="url(#upperGrad)" opacity="0.98"/>
    </g>
  </g>
</svg>
