<svg xmlns="http://www.w3.org/2000/svg" width="1024" height="1024" viewBox="0 0 1024 1024"><defs>
    <linearGradient id="upperGrad" x1="218" y1="238" x2="820" y2="595" gradientUnits="userSpaceOnUse"><stop offset="0" stop-color="#19B9D6"/><stop offset="1" stop-color="#0E7DC8"/></linearGradient>
    <linearGradient id="lowerGrad" x1="218" y1="786" x2="820" y2="429" gradientUnits="userSpaceOnUse"><stop offset="0" stop-color="#22D3EE"/><stop offset="1" stop-color="#179EEA"/></linearGradient>
    <clipPath id="upperClip"><path d="M 256.13 250.10 L 793.31 420.53 Q 820.00 429.00 820.00 457.00 L 820.00 567.00 Q 820.00 595.00 793.31 586.53 L 256.13 416.10 Q 218.00 404.00 218.00 364.00 L 218.00 278.00 Q 218.00 238.00 256.13 250.10 Z"/></clipPath>
    <filter id="shadow1" x="-45%" y="-45%" width="190%" height="190%"><feOffset dx="0" dy="22"/><feGaussianBlur stdDeviation="28"/></filter>
    <filter id="shadow2" x="-35%" y="-35%" width="170%" height="170%"><feOffset dx="0" dy="6"/><feGaussianBlur stdDeviation="10"/></filter>
    <filter id="glow" x="-45%" y="-45%" width="190%" height="190%"><feGaussianBlur stdDeviation="20"/></filter>
    <filter id="triBlur" x="-90%" y="-90%" width="280%" height="280%"><feGaussianBlur stdDeviation="30"/></filter>
    <filter id="softNoise" x="-25%" y="-25%" width="150%" height="150%"><feTurbulence type="fractalNoise" baseFrequency="0.055" numOctaves="5" seed="43" result="noise"/><feGaussianBlur in="noise" stdDeviation="1.4" result="softNoise"/><feDisplacementMap in="SourceGraphic" in2="softNoise" scale="5.6"/></filter>
    <mask id="lowerMinusUpperHard" maskUnits="userSpaceOnUse"><rect width="1024" height="1024" fill="white"/><path d="M 256.13 250.10 L 793.31 420.53 Q 820.00 429.00 820.00 457.00 L 820.00 567.00 Q 820.00 595.00 793.31 586.53 L 256.13 416.10 Q 218.00 404.00 218.00 364.00 L 218.00 278.00 Q 218.00 238.00 256.13 250.10 Z" fill="black"/></mask>
  </defs><g transform="translate(512 512) scale(0.58) translate(-512 -512)">
    <g filter="url(#glow)" opacity="0.11"><path d="M 256.13 607.90 L 793.31 437.47 Q 820.00 429.00 820.00 457.00 L 820.00 567.00 Q 820.00 595.00 793.31 603.47 L 256.13 773.90 Q 218.00 786.00 218.00 746.00 L 218.00 660.00 Q 218.00 620.00 256.13 607.90 Z" fill="#22D3EE" mask="url(#lowerMinusUpperHard)"/><path d="M 256.13 250.10 L 793.31 420.53 Q 820.00 429.00 820.00 457.00 L 820.00 567.00 Q 820.00 595.00 793.31 586.53 L 256.13 416.10 Q 218.00 404.00 218.00 364.00 L 218.00 278.00 Q 218.00 238.00 256.13 250.10 Z" fill="#179EEA" opacity="0.65"/></g>
    <g filter="url(#shadow1)" opacity="0.10"><path d="M 256.13 607.90 L 793.31 437.47 Q 820.00 429.00 820.00 457.00 L 820.00 567.00 Q 820.00 595.00 793.31 603.47 L 256.13 773.90 Q 218.00 786.00 218.00 746.00 L 218.00 660.00 Q 218.00 620.00 256.13 607.90 Z" fill="#0A5F9C" mask="url(#lowerMinusUpperHard)"/><path d="M 256.13 250.10 L 793.31 420.53 Q 820.00 429.00 820.00 457.00 L 820.00 567.00 Q 820.00 595.00 793.31 586.53 L 256.13 416.10 Q 218.00 404.00 218.00 364.00 L 218.00 278.00 Q 218.00 238.00 256.13 250.10 Z" fill="#0A5F9C" opacity="0.68"/></g>
    <g filter="url(#shadow2)" opacity="0.035"><path d="M 256.13 607.90 L 793.31 437.47 Q 820.00 429.00 820.00 457.00 L 820.00 567.00 Q 820.00 595.00 793.31 603.47 L 256.13 773.90 Q 218.00 786.00 218.00 746.00 L 218.00 660.00 Q 218.00 620.00 256.13 607.90 Z" fill="#07456F" mask="url(#lowerMinusUpperHard)"/><path d="M 256.13 250.10 L 793.31 420.53 Q 820.00 429.00 820.00 457.00 L 820.00 567.00 Q 820.00 595.00 793.31 586.53 L 256.13 416.10 Q 218.00 404.00 218.00 364.00 L 218.00 278.00 Q 218.00 238.00 256.13 250.10 Z" fill="#07456F" opacity="0.72"/></g>
    <g shape-rendering="geometricPrecision"><path d="M 256.13 607.90 L 793.31 437.47 Q 820.00 429.00 820.00 457.00 L 820.00 567.00 Q 820.00 595.00 793.31 603.47 L 256.13 773.90 Q 218.00 786.00 218.00 746.00 L 218.00 660.00 Q 218.00 620.00 256.13 607.90 Z" fill="url(#lowerGrad)" opacity="0.40" mask="url(#lowerMinusUpperHard)"/><g clip-path="url(#upperClip)" filter="url(#triBlur)" opacity="0.40"><path d="M 793.31 437.47 Q 820 429 820 457 L 820 567 Q 820 595 793.31 586.53 L 610 528 L 610 495 Z" fill="url(#lowerGrad)"/></g><g opacity="0.14" filter="url(#softNoise)"><path d="M 256.13 250.10 L 793.31 420.53 Q 820.00 429.00 820.00 457.00 L 820.00 567.00 Q 820.00 595.00 793.31 586.53 L 256.13 416.10 Q 218.00 404.00 218.00 364.00 L 218.00 278.00 Q 218.00 238.00 256.13 250.10 Z" fill="url(#upperGrad)"/></g><path d="M 256.13 250.10 L 793.31 420.53 Q 820.00 429.00 820.00 457.00 L 820.00 567.00 Q 820.00 595.00 793.31 586.53 L 256.13 416.10 Q 218.00 404.00 218.00 364.00 L 218.00 278.00 Q 218.00 238.00 256.13 250.10 Z" fill="url(#upperGrad)" opacity="0.48"/><g opacity="0.08"><path d="M 256.13 607.90 L 793.31 437.47 Q 820.00 429.00 820.00 457.00 L 820.00 567.00 Q 820.00 595.00 793.31 603.47 L 256.13 773.90 Q 218.00 786.00 218.00 746.00 L 218.00 660.00 Q 218.00 620.00 256.13 607.90 Z" fill="#FFFFFF" mask="url(#lowerMinusUpperHard)"/><path d="M 256.13 250.10 L 793.31 420.53 Q 820.00 429.00 820.00 457.00 L 820.00 567.00 Q 820.00 595.00 793.31 586.53 L 256.13 416.10 Q 218.00 404.00 218.00 364.00 L 218.00 278.00 Q 218.00 238.00 256.13 250.10 Z" fill="#FFFFFF"/></g></g>
  </g></svg>